<?xml version="1.0" encoding="UTF-8" standalone="no"?>
<!-- Created with Inkscape (http://www.inkscape.org/) -->

<svg
   xmlns:dc="http://purl.org/dc/elements/1.1/"
   xmlns:cc="http://creativecommons.org/ns#"
   xmlns:rdf="http://www.w3.org/1999/02/22-rdf-syntax-ns#"
   xmlns:svg="http://www.w3.org/2000/svg"
   xmlns="http://www.w3.org/2000/svg"
   xmlns:sodipodi="http://sodipodi.sourceforge.net/DTD/sodipodi-0.dtd"
   xmlns:inkscape="http://www.inkscape.org/namespaces/inkscape"
   width="72.766411mm"
   height="21.166666mm"
   viewBox="0 0 72.766411 21.166666"
   version="1.1"
   id="svg4697"
   inkscape:version="0.92.3 (2405546, 2018-03-11)"
   sodipodi:docname="logo.svg">
  <defs
     id="defs4691" />
  <sodipodi:namedview
     id="base"
     pagecolor="#ffffff"
     bordercolor="#666666"
     borderopacity="1.0"
     inkscape:pageopacity="0.0"
     inkscape:pageshadow="2"
     inkscape:zoom="1.979899"
     inkscape:cx="87.555812"
     inkscape:cy="72.930088"
     inkscape:document-units="mm"
     inkscape:current-layer="layer1"
     showgrid="false"
     inkscape:snap-bbox="true"
     fit-margin-top="0"
     fit-margin-left="0"
     fit-margin-right="0"
     fit-margin-bottom="0"
     inkscape:window-width="1920"
     inkscape:window-height="984"
     inkscape:window-x="0"
     inkscape:window-y="27"
     inkscape:window-maximized="1" />
  <metadata
     id="metadata4694">
    <rdf:RDF>
      <cc:Work
         rdf:about="">
        <dc:format>image/svg+xml</dc:format>
        <dc:type
           rdf:resource="http://purl.org/dc/dcmitype/StillImage" />
        <dc:title></dc:title>
      </cc:Work>
    </rdf:RDF>
  </metadata>
  <g
     inkscape:label="Ebene 1"
     inkscape:groupmode="layer"
     id="layer1"
     transform="translate(-51.121281,-126.91071)">
    <path
       inkscape:connector-curvature="0"
       style="fill:#ffcc00;stroke:none;stroke-width:0.33640015px;stroke-linecap:butt;stroke-linejoin:miter;stroke-opacity:1"
       d="m 61.704613,128.23358 c -1.60527,0.25769 -4.9195,2.26034 -6.13813,4.10673 -1.22347,1.85373 -1.79111,3.91143 -1.79989,5.87871 0.002,-0.003 0.004,-0.005 0.006,-0.008 1.54041,-2.05118 3.98783,-2.9514 6.66419,-2.9378 3.11652,0.0158 6.54052,1.26771 9.19686,3.37188 0.0791,-2.75291 -1.11903,-5.55566 -3.83129,-7.2409 1.03221,3.48733 -5.40029,0.13826 -4.09743,-3.17035 z m 7.92871,10.41125 c -0.011,0.38122 -0.0475,0.7612 -0.10697,1.1374 0.0596,-0.3764 0.096,-0.75598 0.10697,-1.1374 z m -15.86673,-0.42116 c -2.6e-4,0.0918 0.002,0.18299 0.004,0.2744 -0.002,-0.0913 -0.005,-0.18266 -0.004,-0.2744 z m 0.0119,0.5116 c 0.004,0.0948 0.009,0.18945 0.016,0.2837 -0.007,-0.0942 -0.0117,-0.1889 -0.016,-0.2837 z m 0.0377,0.51728 c 0.0148,0.15305 0.0326,0.30521 0.0543,0.4563 -0.0216,-0.15106 -0.0394,-0.30329 -0.0543,-0.4563 z m 15.69827,0.60358 c -0.0386,0.23196 -0.0859,0.46241 -0.14263,0.69039 0.0569,-0.22807 0.1039,-0.45834 0.14263,-0.69039 z m -15.613,0.0563 c 0.0159,0.0966 0.0325,0.19272 0.0512,0.28835 -0.0187,-0.0957 -0.0353,-0.19169 -0.0512,-0.28835 z m 0.0956,0.49712 c 0.0315,0.1445 0.066,0.28755 0.10387,0.42943 -0.0378,-0.14175 -0.0724,-0.28507 -0.10387,-0.42943 z m 15.3634,0.18449 c -0.0306,0.1203 -0.0641,0.23978 -0.0997,0.35863 0.0357,-0.11895 0.069,-0.23822 0.0997,-0.35863 z m -0.11937,0.41961 c -0.0631,0.20497 -0.13358,0.40756 -0.21136,0.6072 0.078,-0.19974 0.14814,-0.40213 0.21136,-0.6072 z m -15.07609,0.0574 c 0.0253,0.0861 0.0519,0.17139 0.0796,0.25631 -0.0277,-0.085 -0.0543,-0.17019 -0.0796,-0.25631 z m 0.14986,0.46199 c 0.0437,0.12406 0.0898,0.24662 0.1385,0.36793 -0.0486,-0.12126 -0.0949,-0.24393 -0.1385,-0.36793 z m 14.65027,0.24856 c -0.0614,0.14879 -0.12732,0.29574 -0.19688,0.4408 0.0697,-0.14512 0.13536,-0.29194 0.19688,-0.4408 z m -14.40532,0.37775 c 0.0316,0.0723 0.0652,0.1433 0.0987,0.21446 -0.0334,-0.0712 -0.0671,-0.14216 -0.0987,-0.21446 z m 14.0963,0.29043 c -0.0443,0.0858 -0.0903,0.17058 -0.13746,0.25476 0.0473,-0.0842 0.0931,-0.16899 0.13746,-0.25476 z m -13.87616,0.17208 c 0.0304,0.0596 0.0603,0.11955 0.092,0.17828 -0.0317,-0.0588 -0.0616,-0.11859 -0.092,-0.17828 z m 13.57023,0.36794 c -0.0582,0.0949 -0.11832,0.18861 -0.18035,0.28112 0.0622,-0.0925 0.12201,-0.1862 0.18035,-0.28112 z m -13.26016,0.19171 c 0.0334,0.055 0.0687,0.10825 0.10335,0.16227 -0.0346,-0.054 -0.07,-0.10735 -0.10335,-0.16227 z m 12.89068,0.35916 c -0.20173,0.27615 -0.41913,0.54141 -0.65577,0.79065 0.23684,-0.24913 0.45382,-0.51462 0.65577,-0.79065 z m -0.65577,0.79065 c -0.27016,0.28453 -0.56303,0.54957 -0.87747,0.79271 0.31467,-0.24305 0.60705,-0.50827 0.87747,-0.79271 z m -11.9786,-0.75706 c 0.0416,0.0602 0.083,0.12038 0.12609,0.17931 -0.043,-0.0589 -0.0846,-0.11912 -0.12609,-0.17931 z m 0.38602,0.51728 c 0.0327,0.04 0.0673,0.078 0.10077,0.1173 -0.0334,-0.0392 -0.0681,-0.0774 -0.10077,-0.1173 z m 0.32505,0.36948 c 0.0379,0.0407 0.076,0.0811 0.11472,0.12093 -0.0387,-0.0398 -0.0769,-0.0803 -0.11472,-0.12093 z m 0.40618,0.40567 c 0.0286,0.0263 0.0573,0.0522 0.0863,0.078 -0.029,-0.0258 -0.0577,-0.0517 -0.0863,-0.078 z m 9.97406,0.26509 c -0.0953,0.0735 -0.1932,0.14418 -0.29248,0.21343 0.0993,-0.0692 0.19715,-0.14004 0.29248,-0.21343 z m -9.57461,0.0754 c 0.0432,0.0343 0.0867,0.068 0.13075,0.10129 -0.0439,-0.0333 -0.0876,-0.067 -0.13075,-0.10129 z m 9.23355,0.17157 c -0.0881,0.0605 -0.17804,0.11919 -0.26923,0.17621 0.0913,-0.057 0.18101,-0.11576 0.26923,-0.17621 z m -8.79119,0.15296 c 0.0266,0.018 0.0522,0.0372 0.0791,0.0548 -0.0269,-0.0176 -0.0525,-0.0368 -0.0791,-0.0548 z m 8.45581,0.0646 c -0.10777,0.0659 -0.21672,0.12977 -0.32866,0.19068 0.11188,-0.0608 0.22093,-0.12492 0.32866,-0.19068 z m -0.32866,0.19068 c -0.11776,0.0641 -0.23838,0.12507 -0.3607,0.18345 0.12234,-0.0583 0.24291,-0.1194 0.3607,-0.18345 z m -7.65018,0.0408 c 0.0436,0.0246 0.088,0.0481 0.13229,0.0718 -0.0442,-0.0237 -0.0887,-0.0472 -0.13229,-0.0718 z m 7.2595,0.15658 c -0.10584,0.0499 -0.21325,0.0976 -0.32246,0.14314 0.10919,-0.0455 0.21663,-0.0932 0.32246,-0.14314 z m -6.78408,0.0873 c 0.0347,0.0162 0.0688,0.0334 0.10387,0.0491 -0.0351,-0.0157 -0.0692,-0.0329 -0.10387,-0.0491 z m 6.37016,0.0925 c -0.0918,0.0369 -0.18496,0.0722 -0.27906,0.10593 0.0942,-0.0337 0.18714,-0.069 0.27906,-0.10593 z m -5.81722,0.13901 c 0.0404,0.0148 0.0817,0.0282 0.12247,0.0424 -0.0408,-0.0141 -0.0821,-0.0275 -0.12247,-0.0424 z m 5.43223,0.004 c -0.0939,0.0321 -0.18911,0.0626 -0.28526,0.0915 0.0962,-0.0289 0.1913,-0.0593 0.28526,-0.0915 z m -0.39016,0.12298 c -0.11983,0.0342 -0.24112,0.0656 -0.36432,0.0946 0.12303,-0.029 0.24466,-0.0605 0.36432,-0.0946 z m -4.55114,0.0315 c 0.048,0.0138 0.0956,0.028 0.14417,0.0408 -0.0485,-0.0128 -0.0962,-0.0271 -0.14417,-0.0408 z m 4.15788,0.0703 c -0.1321,0.0306 -0.26663,0.0582 -0.40256,0.0827 0.13606,-0.0245 0.27033,-0.052 0.40256,-0.0827 z m -3.5264,0.0827 c 0.0317,0.006 0.0643,0.0103 0.0961,0.016 -0.0319,-0.006 -0.0645,-0.01 -0.0961,-0.016 z m 3.00137,0.0196 c -0.0967,0.016 -0.19391,0.0311 -0.29249,0.0439 0.0986,-0.0128 0.19576,-0.028 0.29249,-0.0439 z m -2.46393,0.0615 c 0.0459,0.005 0.0917,0.0108 0.13797,0.0155 -0.0462,-0.005 -0.0921,-0.01 -0.13797,-0.0155 z m 2.00918,0.001 c -0.0883,0.01 -0.17737,0.0186 -0.26717,0.0258 0.0898,-0.007 0.17882,-0.016 0.26717,-0.0258 z m -0.43202,0.0377 c -0.0947,0.006 -0.19052,0.01 -0.2868,0.0129 0.0963,-0.003 0.19207,-0.007 0.2868,-0.0129 z m -0.8909,0.015 c 0.15057,0.005 0.29897,0.005 0.44597,0.003 -0.14705,0.002 -0.29535,0.002 -0.44597,-0.003 z"
       id="path26" />
    <path
       inkscape:connector-curvature="0"
       style="fill:#ffd5d5;stroke:none;stroke-width:0.33640015px;stroke-linecap:butt;stroke-linejoin:miter;stroke-opacity:1"
       d="m 60.436473,135.27294 c -2.67636,-0.0136 -5.12378,0.88663 -6.6642,2.93781 -0.002,0.003 -0.004,0.006 -0.006,0.009 -0.0195,4.42341 2.79449,8.38694 7.39025,8.53023 5.26674,0.16422 8.356,-3.91239 8.47648,-8.10493 -2.65633,-2.10417 -6.08033,-3.35608 -9.19685,-3.37189 z"
       id="path28" />
    <ellipse
       style="fill:#916f6f;stroke:none;stroke-width:0.37041685"
       id="path33"
       cx="59.058781"
       cy="138.81697"
       rx="1.3229167"
       ry="1.3229179" />
    <ellipse
       cy="138.81697"
       cx="64.350441"
       id="circle35"
       style="fill:#916f6f;stroke:none;stroke-width:0.37041694"
       rx="1.3229173"
       ry="1.3229179" />
    <g
       transform="translate(19.371273,-17.160123)"
       aria-label="kinder"
       style="font-style:normal;font-variant:normal;font-weight:normal;font-stretch:normal;font-size:17.76176643px;line-height:1.25;font-family:'Frutiger LT Std';-inkscape-font-specification:'Frutiger LT Std';letter-spacing:0px;word-spacing:0px;fill:#483737;fill-opacity:1;stroke:none;stroke-width:0.44404417"
       id="text67">
      <path
         inkscape:connector-curvature="0"
         d="m 59.904788,160.80974 q -0.347993,-0.0278 -0.821262,-0.33407 -0.459349,-0.32015 -0.542867,-0.32015 -0.153117,0 -0.250555,-0.0557 -0.08352,-0.0557 -0.09744,-0.11136 l -0.02784,-0.0557 q -0.194875,-0.13919 -1.809559,-0.6403 l -0.528948,-0.16704 0.08352,0.83518 q 0.05568,0.47327 0.05568,0.68207 0,0.75166 -0.528948,0.75166 -0.584627,0 -0.723823,-0.66815 -0.139197,-0.66814 -0.236635,-3.14584 -0.111357,-2.26891 -0.208795,-2.79786 -0.292314,-1.50333 -0.292314,-3.89751 0,-0.72383 0.501109,-0.72383 0.389751,0 0.556787,0.43151 0.08352,0.2088 0.194876,1.23886 0.111357,1.03005 0.236635,2.28282 0.125277,1.25278 0.208795,1.75388 l 0.0696,0.44543 1.503326,-1.32237 q 0.111358,-0.0974 0.292313,-0.26447 0.194876,-0.16704 0.292314,-0.25055 0.111357,-0.0974 0.264474,-0.23664 0.167036,-0.1392 0.250554,-0.20879 0.09744,-0.0835 0.222715,-0.18096 0.139197,-0.0974 0.222715,-0.15312 0.08352,-0.0557 0.167036,-0.11135 0.09744,-0.0557 0.167036,-0.0696 0.0696,-0.0278 0.125277,-0.0278 0.222715,0.0278 0.361912,0.20879 0.153117,0.16704 0.153117,0.36192 0,0.16703 -0.08352,0.25055 -0.0696,0.0835 -0.292314,0.27839 -0.222715,0.18096 -0.43151,0.47327 -0.584627,0.82126 -2.491623,2.11579 -0.528948,0.36192 -0.556788,0.54287 0,0.0974 0.167037,0.16704 l 1.684281,0.66814 0.09744,0.0557 q 0.111358,0.0418 0.222715,0.0974 0.125277,0.0418 0.306233,0.12528 0.180956,0.0835 0.347992,0.18095 0.180956,0.0835 0.375832,0.19488 0.208795,0.11136 0.375831,0.22271 0.180956,0.0974 0.334072,0.22272 0.167037,0.12528 0.278394,0.23663 0.125277,0.11136 0.194876,0.23664 0.0696,0.11136 0.0696,0.22271 0,0.2088 -0.125277,0.33408 -0.125277,0.12527 -0.334072,0.12527 z"
         style="font-style:normal;font-variant:normal;font-weight:bold;font-stretch:normal;font-size:13.91968346px;font-family:Purisa;-inkscape-font-specification:'Purisa, Bold';font-variant-ligatures:normal;font-variant-caps:normal;font-variant-numeric:normal;font-feature-settings:normal;text-align:start;writing-mode:lr-tb;text-anchor:start;fill:#483737;stroke-width:0.44404417"
         id="path4658" />
      <path
         inkscape:connector-curvature="0"
         d="m 62.86011,153.26527 q 0.236635,-0.16703 0.45935,-0.16703 0.222715,0 0.375831,0.18095 0.222715,0.41759 0.361912,2.42203 0.153117,2.00443 0.153117,3.74439 0,1.25277 -0.08352,1.41981 -0.278394,0.22272 -0.598547,0.22272 -0.487189,0 -0.598546,-0.29232 -0.0696,-0.22271 -0.222715,-2.89529 -0.139197,-2.6865 -0.139197,-3.59128 0,-0.8491 0.292313,-1.04398 z m -0.153116,-3.2572 q 0.02784,-0.26448 0.222715,-0.43151 0.208795,-0.16704 0.403671,-0.16704 0.194875,0 0.501108,0.18096 0.306233,0.18095 0.306233,0.48719 0,0.33407 -0.167036,0.59854 -0.167036,0.26448 -0.44543,0.26448 -0.292313,0 -0.556787,-0.26448 -0.264474,-0.27839 -0.264474,-0.66814 z"
         style="font-style:normal;font-variant:normal;font-weight:bold;font-stretch:normal;font-size:13.91968346px;font-family:Purisa;-inkscape-font-specification:'Purisa, Bold';font-variant-ligatures:normal;font-variant-caps:normal;font-variant-numeric:normal;font-feature-settings:normal;text-align:start;writing-mode:lr-tb;text-anchor:start;fill:#483737;stroke-width:0.44404417"
         id="path4660" />
      <path
         inkscape:connector-curvature="0"
         d="m 67.171515,153.9195 q 0,-0.72382 0.45935,-0.72382 0.306233,0.0139 0.40367,0.37583 0.09744,0.36191 0.278394,2.03227 0.01392,0.12528 0.01392,0.19488 0.01392,0.0696 0.02784,0.18095 0.01392,0.11136 0.02784,0.2088 l 0.194875,1.58684 0.153117,-0.45935 q 0.292313,-0.90478 0.501108,-1.32237 0.222715,-0.41759 0.807342,-1.18317 1.127494,-1.48941 1.906997,-1.48941 0.515028,0 0.890859,0.57071 0.44543,0.62639 0.542868,1.25277 0.111357,0.62639 0.153116,2.86746 0.02784,1.4198 0.02784,1.72604 0,0.9187 -0.125277,1.25277 -0.125278,0.32015 -0.515029,0.32015 -0.264474,0 -0.347992,-0.1392 -0.08352,-0.15311 -0.08352,-0.59854 0,-0.2088 0.02784,-0.86302 0.02784,-0.65423 0.02784,-1.08574 0,-1.18317 -0.09744,-2.21323 -0.09744,-1.03005 -0.222715,-1.29453 -0.05568,-0.11136 -0.139197,-0.20879 -0.08352,-0.11136 -0.153116,-0.16704 -0.05568,-0.0557 -0.08352,-0.0557 -0.222715,0 -0.918699,0.93262 -0.682065,0.93262 -1.155334,1.907 -0.487189,1.03005 -0.654225,1.50332 -0.153117,0.47327 -0.250555,1.28061 -0.153116,1.29453 -0.250554,1.43373 -0.0696,0.0835 -0.153116,0.0835 -0.208796,-0.0278 -0.44543,-0.29231 -0.125277,-0.1392 -0.194876,-0.348 -0.05568,-0.22271 -0.09744,-0.66814 -0.04176,-0.45935 -0.0696,-0.97438 -0.02784,-0.52895 -0.111357,-1.51724 -0.08352,-1.00222 -0.208796,-2.07404 -0.167036,-1.67036 -0.167036,-2.03227 z"
         style="font-style:normal;font-variant:normal;font-weight:bold;font-stretch:normal;font-size:13.91968346px;font-family:Purisa;-inkscape-font-specification:'Purisa, Bold';font-variant-ligatures:normal;font-variant-caps:normal;font-variant-numeric:normal;font-feature-settings:normal;text-align:start;writing-mode:lr-tb;text-anchor:start;fill:#483737;stroke-width:0.44404417"
         id="path4662" />
      <path
         inkscape:connector-curvature="0"
         d="m 80.769306,155.46458 q -0.807342,-0.47327 -1.099655,-0.47327 -0.194876,0 -1.197093,0.82127 -1.002217,0.82126 -1.211012,1.25277 -0.125278,0.25055 -0.125278,1.07181 0,0.93262 0.167037,1.21102 0.125277,0.19487 0.654225,0.44543 0.542867,0.25055 1.030056,0.25055 0.932619,0 2.422025,-1.25277 1.043977,-0.87694 1.155334,-1.21101 0,-0.348 -0.584627,-1.04398 -0.570707,-0.69598 -1.211012,-1.07182 z m 2.018354,3.70264 q -0.01392,0.0139 -0.292313,0.30623 -0.264474,0.2784 -0.598547,0.55679 -0.320153,0.27839 -0.779502,0.59855 -0.44543,0.32015 -1.043976,0.51502 -0.598547,0.19488 -1.211013,0.19488 -0.528948,0 -1.155334,-0.2088 -1.962675,-0.66814 -1.962675,-2.75609 0,-0.8491 0.292313,-1.61469 0.306233,-0.7795 0.765583,-1.32237 0.473269,-0.55678 1.016137,-0.96045 0.556787,-0.40367 1.071816,-0.59855 0.515028,-0.2088 0.890859,-0.2088 0.43151,0 1.378049,0.50111 0.946538,0.50111 1.33629,0.96046 0.222715,0.2784 0.334072,0.36191 0.05568,-0.48719 0.09744,-3.78615 0.04176,-3.31289 0.180956,-3.64696 0.222715,-0.54287 0.709904,-0.54287 h 0.556787 l -0.111358,5.90195 q -0.04176,2.03227 -0.04176,3.63304 0,2.15755 0.09744,3.09017 0.09744,0.9187 0.09744,1.01613 0,0.29232 -0.153117,0.59855 -0.153116,0.30623 -0.515028,0.30623 -0.44543,0 -0.626386,-0.51502 -0.180956,-0.50111 -0.236634,-1.33629 -0.04176,-0.83519 -0.09744,-1.04398 z"
         style="font-style:normal;font-variant:normal;font-weight:bold;font-stretch:normal;font-size:13.91968346px;font-family:Purisa;-inkscape-font-specification:'Purisa, Bold';font-variant-ligatures:normal;font-variant-caps:normal;font-variant-numeric:normal;font-feature-settings:normal;text-align:start;writing-mode:lr-tb;text-anchor:start;fill:#483737;stroke-width:0.44404417"
         id="path4664" />
      <path
         inkscape:connector-curvature="0"
         d="m 92.107977,155.64554 q 0,-0.11136 -0.612466,-0.57071 -0.44543,-0.33407 -0.640305,-0.41759 -0.180956,-0.0835 -0.528948,-0.0835 -0.695984,0 -1.030057,0.11136 -0.320152,0.0974 -0.682064,0.44543 -1.071816,1.04398 -1.085736,1.35021 0.05568,0.0139 0.236635,0.0139 1.350209,0 3.744395,-0.47327 0.598546,-0.11136 0.598546,-0.37583 z m 1.795639,2.19931 q 0.250555,0 0.250555,0.29231 0,0.32016 -0.403671,0.9187 -0.403671,0.58463 -0.807342,0.94654 -1.559004,1.33629 -3.215447,1.33629 -1.364129,0 -2.463784,-1.07182 -1.099655,-1.07181 -1.099655,-2.95097 0,-0.52895 0.153117,-1.01614 0.292313,-0.86302 1.30845,-1.79563 1.016137,-0.94654 1.948756,-0.94654 0.250554,0 0.737743,0.0418 0.751663,0.0557 1.057896,0.15311 0.320153,0.0835 0.723824,0.34799 0.445429,0.29232 0.807341,0.83519 0.361912,0.52894 0.361912,0.93261 0,0.52895 -0.43151,0.77951 -0.43151,0.25055 -1.461567,0.45935 -1.350209,0.26447 -2.783937,0.34799 l -1.211012,0.0557 v 0.36191 q 0,0.51503 0.222715,0.90478 0.236634,0.38975 0.751663,0.82126 0.737743,0.61247 1.503326,0.61247 0.612466,0 1.29453,-0.36192 0.682065,-0.37583 1.155334,-0.82126 0.487189,-0.44543 0.932619,-0.80734 0.459349,-0.37583 0.668144,-0.37583 z"
         style="font-style:normal;font-variant:normal;font-weight:bold;font-stretch:normal;font-size:13.91968346px;font-family:Purisa;-inkscape-font-specification:'Purisa, Bold';font-variant-ligatures:normal;font-variant-caps:normal;font-variant-numeric:normal;font-feature-settings:normal;text-align:start;writing-mode:lr-tb;text-anchor:start;fill:#483737;stroke-width:0.44404417"
         id="path4666" />
      <path
         inkscape:connector-curvature="0"
         d="m 101.08509,154.40669 q 0.26447,0 0.45934,0.12528 0.19488,0.11135 0.25056,0.22271 0.0696,0.11136 0.0696,0.19488 0,0.27839 -0.64031,0.51502 -0.8491,0.32016 -1.851316,1.57293 -0.988297,1.25277 -1.197093,2.35242 -0.264474,1.40589 -0.44543,1.86524 -0.180955,0.47327 -0.528948,0.47327 -0.139196,0 -0.250554,-0.0418 -0.09744,-0.0278 -0.167036,-0.12527 -0.0696,-0.0974 -0.111358,-0.16704 -0.04176,-0.0696 -0.08352,-0.22272 -0.02784,-0.16703 -0.04176,-0.23663 0,-0.0835 -0.02784,-0.26447 -0.01392,-0.19488 -0.01392,-0.23664 -0.334072,-3.25721 -0.334072,-5.47043 0,-0.45935 0.05568,-0.70991 0.05568,-0.26447 0.278393,-0.45935 0.139197,-0.12528 0.306233,-0.12528 0.180956,0 0.306233,0.15312 0.125278,0.1392 0.125278,0.37583 0,0.51503 0.139196,1.46157 0.153117,0.93262 0.278394,1.46157 0.111357,-0.15312 0.320153,-0.47327 0.528948,-0.86302 1.475486,-1.54509 0.946541,-0.69598 1.628611,-0.69598 z"
         style="font-style:normal;font-variant:normal;font-weight:bold;font-stretch:normal;font-size:13.91968346px;font-family:Purisa;-inkscape-font-specification:'Purisa, Bold';font-variant-ligatures:normal;font-variant-caps:normal;font-variant-numeric:normal;font-feature-settings:normal;text-align:start;writing-mode:lr-tb;text-anchor:start;fill:#483737;stroke-width:0.44404417"
         id="path4668" />
    </g>
  </g>
</svg>
